<svg xmlns="http://www.w3.org/2000/svg" width="24" height="24" fill="none" viewBox="0 0 24 24">
  <path d="M19.009,3.54a0.362,0.362,0,0,1-.187-0.094V3.4H18.728L18.682,3.3H18.588l-0.094-.142H18.4V3.115l-0.14-.047-0.047-.094H18.12l-0.281-.33V2.313h0.047V2.218l0.375-.283h0.094V1.888l0.187-.047,0.047-.094L18.775,1.7c0.125-.068.237-0.172,0.375-0.236L19.29,0.8h0.047c0.165-.46.048-0.815,0.7-0.8a0.422,0.422,0,0,0,.187.094l0.421,0.472h0.094l0.328,0.378h1.358a0.259,0.259,0,0,0,.187.094,0.926,0.926,0,0,1,.14.472L22.193,2.738H22.24l0.047,0.283h0.047V3.162a1.706,1.706,0,0,1,.234,1.18,3.3,3.3,0,0,1-1.686,0l-0.14.189H20.648l-0.094.142H20.461l-0.094.142H20.273L20.133,5a0.979,0.979,0,0,1-.655.142l-0.234-.283ZM5.525,1.652a1.161,1.161,0,0,1,.328.189H5.946V1.888H6.04L6.087,1.982H6.18V2.03H6.274V2.077H6.368V2.124H6.461L6.508,2.218H6.6V2.266a0.406,0.406,0,0,1,.281.283H6.929V2.832H6.883V2.974L6.7,3.115V3.162H6.6l-0.047.094H6.461L6.368,3.4H6.274V3.446l-0.14.047-0.047.094H5.993l-0.047.094-0.14.047V3.776l-0.14.047L5.384,5.334l-0.094.047V5.475a0.768,0.768,0,0,1-.515.094V5.522L4.588,5.475,4.542,5.381H4.448l-0.14-.189H4.214L4.12,5.05H4.027L3.933,4.909H3.839L3.792,4.814a1.513,1.513,0,0,1-.187-0.142C3.512,4.69,3.292,4.689,3.184,4.72V4.767H2.809a1.762,1.762,0,0,1-.655.094V4.814L1.92,4.767a0.988,0.988,0,0,1-.14-0.519H1.826l0.047-.283H1.92V3.823a3.6,3.6,0,0,0,.328-0.944A1.056,1.056,0,0,1,2.06,2.5H2.013V2.36H1.966V2.266H1.92V2.171H1.873a1.268,1.268,0,0,1-.14-0.944,4.347,4.347,0,0,1,1.732-.142l0.843-.9H4.4V0.142A0.569,0.569,0,0,0,4.542.047a1.617,1.617,0,0,1,.515.094L5.291,0.661V0.85H5.338V0.991H5.384V1.18H5.431ZM14,0.142h0.515V0.189L14.8,0.283V0.33h0.094l0.047,0.094,0.281,0.094,0.047,0.094,0.281,0.094L15.591,0.8,15.779,0.85l0.047,0.094,0.187,0.047L16.06,1.086,16.2,1.133V1.227l0.094,0.047L16.34,1.841a2.108,2.108,0,0,0-.234.378l-0.234.189V2.5l-0.234.189V2.785L15.4,2.974V3.068l-0.234.189V3.351l-0.234.189V3.634L14.8,3.729V3.776c-0.079.078-.208,0.1-0.281,0.189a1.072,1.072,0,0,1-.515,0V3.918H13.906V3.87H13.812V3.823l-0.187-.047-0.047-.094-0.187-.047L13.344,3.54H13.25V3.493a0.515,0.515,0,0,1-.328-0.33,0.848,0.848,0,0,1,0-.755h0.047V2.266h0.047V2.171h0.047l0.094-.425H13.2V1.652H13.25L13.3,1.369h0.047V1.274h0.047l0.047-.283h0.047V0.9h0.047V0.755h0.047V0.614h0.047l0.047-.189h0.047V0.33h0.047l0.047-.094h0.094V0.189H14V0.142ZM13.625,2.879c0.255,0.053.407,0.263,0.656,0.33V3.162c0.142-.093.021-0.042,0.094-0.142l0.234-.189V2.738l0.234-.189V2.454l0.187-.142V2.218l0.094-.047,0.094-.142h0.047V1.935A0.594,0.594,0,0,0,15.5,1.652,0.082,0.082,0,0,0,15.545,1.6l-0.187-.047L15.31,1.463l-0.281-.094-0.047-.094L14.8,1.227l-0.047-.094-0.187-.047V1.038H14.468l-0.047-.094L14.28,0.9a1.026,1.026,0,0,1-.094.378H14.14l-0.047.283H14.046V1.7H14V1.794H13.953V1.935H13.906V2.077A2.267,2.267,0,0,0,13.625,2.879Zm-8.849,1.7A3.554,3.554,0,0,1,5.01,3.4L5.15,3.3V3.257H5.244l0.094-.142H5.431l0.047-.094H5.572l0.047-.094,0.14-.047V2.832L5.9,2.785V2.69L5.618,2.6V2.549H5.525L5.478,2.454,5.291,2.407a1.265,1.265,0,0,1-.328-0.283L4.869,2.077,4.588,1.038H4.542V1.086a6.59,6.59,0,0,1-.843.755H2.575V1.888a1.019,1.019,0,0,1,.187.378H2.809V2.407H2.856L2.9,2.6H2.95V2.738H3L2.95,3.3H2.9V3.446H2.856V3.587H2.809V3.729c-0.035.088-.1,0.233-0.14,0.33H2.762V4.012H3.09V3.965a2.5,2.5,0,0,1,.8,0V4.012H3.98V4.059H4.073L4.12,4.154H4.214L4.308,4.3H4.4L4.448,4.39l0.14,0.047V4.484A0.385,0.385,0,0,0,4.776,4.578Zm16.949-.9a3.476,3.476,0,0,1-.281-1.133h0.047V2.407h0.047V2.313h0.047V2.171h0.047V2.077A1.39,1.39,0,0,0,21.818,1.7a3.39,3.39,0,0,1-1.03-.047,0.948,0.948,0,0,1-.375-0.283l-0.047-.094H20.273l-0.187-.236H20.039V1.086H19.992l-0.047.33H19.9V1.6H19.852V1.746H19.805V1.888l-0.094.047V2.03L18.869,2.5V2.549h0.047l0.749,0.566V3.21a3.65,3.65,0,0,1,.234.944h0.047a1.535,1.535,0,0,1,.187-0.142l0.047-.094h0.094l0.094-.142h0.094l0.047-.094H20.6V3.634h0.14V3.587A3.04,3.04,0,0,1,21.725,3.682Zm-7.21,9.487,0.515-.189V12.933h0.14V12.886h0.094V12.839l1.217-.33h0.328V12.461l1.639-.047v0.047l0.843,0.047v0.047l0.7,0.094V12.7l0.375,0.047v0.047l0.328,0.047v0.047h0.14v0.047h0.187V12.98h0.14v0.047l0.281,0.095v0.047h0.094l0.047,0.094h0.094l0.14,0.189,0.234,0.189a2.964,2.964,0,0,1,.328.85,2.766,2.766,0,0,1-.094.755H22.24v0.142H22.193v0.094H22.146v0.094l-0.094.047v0.094l-0.094.047-0.14.189H21.725l-0.047.094-0.187.047v0.047H21.4V16.19h-0.14v0.047H20.976v0.047H20.6l-1.966-.566H18.4V15.671H18.12V15.623H17.839V15.576l-1.92-.047,0.14,0.519h0.047v0.189a2.243,2.243,0,0,1-.14,1.652l-0.094.047v0.094H15.825l-0.14.189H15.591l-0.094.142-0.187.047v0.047H15.217V18.5h-0.14V18.55H14.983V18.6h-0.14v0.047H14.749v0.047l-0.421.094v0.047H14.234V18.88l-0.281.047v0.047l-0.281.047v0.047H13.578v0.047h-0.14v0.047l-0.421.094v0.047h-0.14v0.047H12.782V19.4l-0.281.047v0.047l-0.281.047v0.047H12.127v0.047h-0.14v0.047H11.846V19.73h-0.14v0.047h-0.14v0.047H11.471v0.047h-0.14v0.047H11.19v0.047H11.05v0.047h-0.14V20.06h-0.14v0.047H10.675v0.047l-0.421.094V20.3h-0.14v0.047H10.02v0.047H9.879v0.047H9.739v0.047H9.6v0.047H9.458v0.047H9.364v0.047H9.224v0.047H9.083v0.047H8.943v0.047H8.8v0.047H8.662v0.047H8.568V20.91l-0.281.047V21l-0.281.047V21.1H7.913v0.047H7.772v0.047l-0.421.094v0.047H7.257v0.047l-0.281.047v0.047H6.836v0.047H6.7v0.047H6.555v0.047H6.461v0.047l-0.421.094v0.047H5.9v0.047H5.806V21.9L5.384,22v0.047L5.1,22.09v0.047H5.01v0.047H4.869v0.047H4.729v0.047H4.588v0.047H4.448v0.047H4.354V22.42H4.214v0.047H4.073v0.047H3.933v0.047H3.792v0.047H3.7v0.047H3.558V22.7H3.418v0.047H3.277V22.8H3.137v0.047H2.95v0.047a2.476,2.476,0,0,1-1.217-.142l-0.14-.189-0.281-.236-0.047-.189H1.217a2.894,2.894,0,0,1-.094-0.755H1.171v-0.33H1.217l0.047-.33H1.311V20.627H1.358V20.485H1.4V20.343H1.451L1.5,20.06H1.545V19.966H1.592V19.824H1.639V19.683H1.686V19.541H1.732V19.4H1.779V19.258H1.826V19.163H1.873l0.094-.425H2.013V18.6H2.06V18.5H2.107V18.361H2.154V18.219H2.2V18.078H2.247V17.936H2.294V17.842H2.341l0.047-.283c0.082-.206.2-0.455,0.281-0.661l0.094-.425c0.581-1.339.965-2.861,1.545-4.2L4.4,11.847c0.081-.206.2-0.455,0.281-0.661L4.729,10.9H4.776V10.809H4.823l0.094-.425H4.963V10.243H5.01V10.148H5.057L5.1,9.865H5.15L5.2,9.582H5.244V9.487H5.291l0.094-.425H5.431V8.968H5.478V8.827H5.525l0.094-.283H5.665V8.449l0.14-.094V8.26l0.187-.142V8.071H6.087l0.047-.094H6.227V7.93l0.187-.047V7.835a2.61,2.61,0,0,1,1.077-.094V7.788H7.725V7.835H7.96V7.882H8.1a1.921,1.921,0,0,0,.515.189L8.709,6.419H8.662V5.758H8.615V5.381H8.568V5.1H8.521V4.814H8.475V4.578L8.147,3.4A1.679,1.679,0,0,1,8.24,2.5V2.36a1.723,1.723,0,0,1,1.077-.9H9.692V1.416L10.3,1.51V1.558h0.094V1.6L10.675,1.7l0.094,0.142h0.094l0.421,0.566V2.5h0.047V2.643h0.047V2.738h0.047V2.926h0.047V3.115h0.047V3.351h0.047V3.54h0.047V3.776h0.047V4.012h0.047v0.33h0.047v0.33H11.8V5.239a2.292,2.292,0,0,1,.047.755H11.8V6.608H11.752v0.33H11.705V7.222H11.658V7.458H11.612V7.646H11.565l-0.047.33H11.471V8.118H11.424V8.26H11.377V8.355H11.331l-0.047.283H11.237l-0.094.283H11.1V9.015H11.05V9.11H11c-0.063.119-.081,0.223-0.141,0.33h0.047l0.14,0.189h0.094l0.094,0.142h0.094l0.14,0.189h0.094a0.589,0.589,0,0,0,.281.236l0.234-.33,0.14-.094V9.676l0.234-.189V9.393L12.688,9.2V9.11l0.234-.189V8.827l0.234-.189V8.543l0.281-.236a0.4,0.4,0,0,1,.421.142,0.5,0.5,0,0,1,.094.378H13.906a0.5,0.5,0,0,1-.14.236H13.719V9.157H13.672L13.578,9.3l-0.094.047V9.44l-0.234.189V9.723l-0.234.189v0.094l-0.234.189V10.29l-0.094.047-0.094.142H12.548v0.094H12.5a0.383,0.383,0,0,0-.094.189L12.688,11v0.047h0.094v0.047l0.14,0.094v0.094h0.047L13.2,11.564a0.082,0.082,0,0,0,.047-0.047l0.328-.236,0.094-.142h0.094l0.187-.236h0.094l0.047-.094H14.14l0.047-.094H14.28l0.187-.236h0.094l0.187-.236h0.094l0.187-.236h0.094l0.187-.236H15.4l0.187-.236h0.094L15.872,9.3h0.094l0.187-.236h0.094l0.047-.094,0.14-.094V8.827h0.094l0.187-.236h0.094L16.949,8.4h0.094l0.187-.236h0.094l0.094-.142h0.047l0.047-.094H17.6l0.14-.189a0.627,0.627,0,0,0,.328-0.33L16.9,6.278a0.927,0.927,0,0,0-.515-0.425l-0.234.33-0.14.094V6.372l-0.234.189V6.655l-0.234.189V6.938l-0.187.142V7.174l-0.234.189a0.679,0.679,0,0,1-.562.425V7.741h-0.14V7.694c-0.165-.134-0.147-0.174-0.14-0.472a1.822,1.822,0,0,0,.14-0.189l0.094-.047V6.891L14.749,6.7V6.608l0.234-.189V6.325l0.234-.189V6.042l0.234-.189A1.672,1.672,0,0,1,16.2,5.1a1.754,1.754,0,0,1,.656.047l1.826,1.794a1.355,1.355,0,0,1,.14.708H18.775V7.788H18.728l-0.047.189-0.234.189L18.4,8.26H18.307L18.12,8.5H18.026l-0.187.236H17.745L17.7,8.827l-0.14.094V8.968H17.464L17.277,9.2H17.183L17,9.44H16.9l-0.187.236H16.621l-0.187.236H16.34l-0.187.236H16.06l-0.14.189H15.825l-0.187.236H15.545l-0.047.094-0.14.094v0.047H15.264l-0.187.236H14.983l-0.187.236H14.7l-0.187.236H14.421l-0.187.236H14.14l-0.187.236H13.859v0.047l-0.094.047v0.142a1.517,1.517,0,0,1,.421.519l0.14,0.094v0.094h0.047A0.508,0.508,0,0,1,14.514,13.169Zm-4.823-11-0.468.142L9.083,2.5H9.036V2.6H8.99V2.69H8.943V2.832H8.9a1.409,1.409,0,0,0,.14.85l0.328,1.6L9.411,6.325H9.458v0.85H9.411V7.882H9.364l-0.047.566a3.109,3.109,0,0,1,.89.566h0.047a1.336,1.336,0,0,1,.187-0.378V8.543h0.047V8.449h0.047V8.307h0.047V8.213h0.047l0.047-.283h0.047V7.788h0.047V7.646h0.047V7.5h0.047l0.047-.425a6.941,6.941,0,0,0-.094-3.446V3.446L10.582,2.69,10.441,2.6V2.5L10.3,2.454l-0.094-.142ZM20.929,6.23h2.435a2.816,2.816,0,0,0,.328.142l0.14,0.189h0.047L23.925,6.75h0.047a1.767,1.767,0,0,1-.094.85l-0.047.566c-0.124.413-.158,0.961-0.281,1.369V9.818a0.967,0.967,0,0,1-.515.755V10.62H22.8a5.28,5.28,0,0,1-1.311.047c-0.117-.036-0.242-0.111-0.375-0.142l-0.14-.189H20.929V10.243H20.882V10.148H20.835V10.007H20.788V9.723H20.742V9.487H20.695V9.2H20.648V8.921H20.6V8.638H20.554V8.355c-0.069-.235-0.119-0.567-0.187-0.8V7.269A1.1,1.1,0,0,1,20.32,6.75h0.047l0.047-.189L20.6,6.419V6.372h0.094V6.325l0.234-.047V6.23Zm-18.26.142a0.916,0.916,0,0,1,.468.094,0.884,0.884,0,0,1,.421.378L3.746,9.063H3.792l0.047,1.18H3.792l-0.047.236a4.781,4.781,0,0,1-.421.33L2.482,11v0.047H2.294v0.047a1.226,1.226,0,0,1-.609,0V11.045L1.5,11l-0.234-.283V10.62H1.217V10.526H1.171V10.431H1.124V10.337H1.077V10.243H1.03l-0.047-.189H0.936V9.912H0.89V9.818H0.843V9.723H0.8L0.7,9.44H0.655V9.3H0.609V9.2H0.562L0.468,8.921H0.421V8.779H0.375V8.685H0.328V8.591H0.281L0.187,8.307H0.14L0.094,8.071H0.047V7.977H0V7.458A0.409,0.409,0,0,0,.094,7.269L0.328,7.08V7.033l0.234-.047V6.938H0.7V6.891H0.89V6.844H1.077V6.8L1.4,6.75V6.7H1.592c0.212-.073.494-0.164,0.7-0.236A0.892,0.892,0,0,0,2.669,6.372Zm18.4,0.614L21.21,7.977h0.047V8.26c0.074,0.245.114,0.6,0.187,0.85V9.393h0.047a1.251,1.251,0,0,0,.094.472,3.932,3.932,0,0,0,1.124.047,0.083,0.083,0,0,1,.047-0.047,4.967,4.967,0,0,1,.187-0.944V8.638h0.047l0.094-.85a3.011,3.011,0,0,0,.14-0.8H21.069Zm-20.32.708L0.843,7.977H0.89V8.118H0.936V8.213H0.983V8.307H1.03L1.124,8.591H1.171V8.732H1.217V8.827H1.264V8.921H1.311L1.4,9.2H1.451V9.346H1.5L1.545,9.535H1.592l0.14,0.425H1.779v0.094H1.826c0.058,0.111.091,0.225,0.14,0.33,0.209-.078.5-0.164,0.7-0.236a0.909,0.909,0,0,0,.375-0.094A0.756,0.756,0,0,0,3.09,9.629a1.507,1.507,0,0,1-.047-0.472H3V8.638H2.95V8.118H2.9V7.646H2.856c-0.049-.174,0-0.393-0.047-0.519l-0.562.189H2.06A9.786,9.786,0,0,1,.749,7.694Zm5.057,2.6a2.537,2.537,0,0,1,.749.33l0.187,0.047v0.047H6.836v0.047H6.929v0.047H7.023v0.047H7.117V10.9H7.21L7.257,11l0.187,0.047,0.047,0.094H7.585v0.047H7.679v0.047l0.14,0.047,0.047,0.094H7.96L8.006,11.47H8.1l0.094,0.142H8.287l0.047,0.094H8.428L8.475,11.8l0.14,0.047,0.094,0.142H8.8l0.14,0.189H9.036l0.14,0.189H9.271L9.458,12.6H9.551l0.094,0.142,0.187,0.142v0.047H9.926l0.047,0.094H10.02v0.095h0.047a1.907,1.907,0,0,1-.047.425,1.083,1.083,0,0,1-.515.094L9.411,13.5H9.317l-0.234-.283H8.99l-0.234-.283H8.662l-0.14-.189H8.428L8.334,12.6H8.24l-0.094-.142H8.053L7.96,12.319H7.866l-0.094-.142H7.679l-0.047-.094H7.538l-0.047-.094H7.4l-0.047-.094-0.14-.047V11.8l-0.187-.047-0.047-.094-0.187-.047-0.047-.094-0.281-.094V11.375H6.368V11.328l-0.281-.094V11.187H5.946V11.139L5.525,11a3.277,3.277,0,0,1-.234.614L5.2,12.036H5.15l-0.14.425H5.057a1.1,1.1,0,0,0,.328.189V12.7H5.478v0.047H5.572l0.047,0.094,0.187,0.047L5.853,12.98H5.946l0.047,0.094H6.087l0.047,0.095H6.227v0.047l0.14,0.047,0.047,0.094H6.508L6.6,13.5H6.7l0.047,0.094H6.836l0.14,0.189,0.14,0.047,0.047,0.094H7.257L7.3,14.019l0.14,0.094V14.16H7.538L7.725,14.4H7.819L8.1,14.727H8.194l0.468,0.519,0.609,0.566v0.094L9.6,16.19v0.094l0.234,0.189v0.094l0.234,0.189v0.094L10.16,16.9l0.047,0.142,0.187,0.142v0.094l0.094,0.047v0.094l0.14,0.094v0.094l0.094,0.047v0.094l0.094,0.047v0.094l0.094,0.047,0.609,1.086,1.451-.519a2.561,2.561,0,0,0-.328-0.755V17.653H12.595V17.559H12.548V17.464H12.5V17.37H12.454V17.275l-0.094-.047-0.047-.189-0.094-.047L12.173,16.8H12.127l-0.047-.142-0.094-.047V16.52H11.939l-0.047-.142L11.8,16.331V16.237l-0.14-.094V16.048L11.565,16V15.907l-0.094-.047-0.047-.142-0.187-.142V15.482l-0.14-.094-0.047-.142-0.281-.236V14.915l-0.094-.047a2.164,2.164,0,0,0-.187-0.236c-0.012-.425.137-0.534,0.562-0.519l0.281,0.33h0.047v0.094l0.234,0.189v0.094l0.234,0.189V15.1L11.986,15.2v0.094l0.14,0.094v0.094l0.14,0.094v0.094l0.094,0.047v0.094l0.14,0.094V16l0.094,0.047v0.094l0.094,0.047v0.094l0.094,0.047v0.094l0.094,0.047v0.094h0.047v0.094l0.094,0.047V16.8h0.047V16.9H13.11v0.094h0.047v0.094l0.094,0.047,0.14,0.425h0.047v0.094h0.047l0.187,0.566a1.707,1.707,0,0,0,.515-0.189l0.843-.283,0.047-.094H15.17l0.047-.094h0.047V17.464l0.094-.047a2.172,2.172,0,0,0-.047-1.369H15.264V15.907H15.217V15.765H15.17l-0.047-.189H15.076V15.482H15.029l-0.047-.236L14.889,15.2V15.1H14.842V15.01H14.8V14.915H14.749V14.821l-0.094-.047-0.047-.189-0.094-.047-0.047-.189L14.374,14.3V14.207H14.327l-0.047-.142-0.094-.047V13.924l-0.14-.094V13.735l-0.141-.094V13.547l-0.14-.094V13.358l-0.14-.094V13.169l-0.094-.047V13.075l-0.094-.047V12.933L13.2,12.744V12.65l-0.187-.142-0.094-.142H12.876V12.272l-0.094-.047a2.171,2.171,0,0,1-.468-0.566,2.169,2.169,0,0,1-.562-0.472l-0.047-.094H11.612V11.045l-0.14-.094-0.14-.189H11.237l-0.047-.094H11.143L11.1,10.573H11l-0.187-.236H10.722L10.628,10.2l-0.14-.047-0.047-.094H10.347l-0.094-.142H10.16l-0.047-.094H10.02L9.926,9.676H9.832L9.786,9.582,9.6,9.535V9.487L9.458,9.44,9.411,9.346,9.224,9.3,9.177,9.2H9.083V9.157H8.99V9.11H8.9V9.063H8.8V9.015H8.709V8.968H8.615V8.921L8.334,8.827V8.779H8.194V8.732H8.1V8.685A3.079,3.079,0,0,0,6.836,8.5a2.649,2.649,0,0,1-.328.142l-0.094.142H6.368V8.874l-0.094.047-0.047.236H6.18l-0.047.189H6.087L6.04,9.629A2.4,2.4,0,0,0,5.806,10.29Zm9.739,4.484h1.92v0.047h0.421v0.047h0.328v0.047h0.281v0.047h0.234V15.01h0.187v0.047H19.15V15.1L19.665,15.2v0.047h0.14v0.047h0.187V15.34a1.521,1.521,0,0,0,1.124.094,0.549,0.549,0,0,0,.421-0.472,0.9,0.9,0,0,0-.047-0.8,5.2,5.2,0,0,0-.515-0.425l-0.609-.142a7.161,7.161,0,0,0-4.167-.189H16.013v0.047h-0.14V13.5h-0.14v0.047h-0.14v0.047H15.451v0.047H15.31v0.047l-0.187.047v0.047H14.983V13.83a1.252,1.252,0,0,1,.234.378h0.047V14.3l0.094,0.047v0.094A1.252,1.252,0,0,1,15.545,14.774ZM4.729,13.216l-0.8,2.407a0.371,0.371,0,0,1,.187.094v0.047H4.214l0.047,0.094H4.354L4.448,16H4.542l0.094,0.142H4.729l0.14,0.189H4.963L5.1,16.52H5.2l0.094,0.142,0.14,0.094V16.8H5.525l0.281,0.33H5.9l0.421,0.472,0.562,0.519v0.094L7.21,18.5V18.6l0.281,0.236v0.094l0.187,0.142v0.094l0.187,0.142V19.4l0.14,0.094v0.094l0.14,0.094v0.094L8.24,19.824v0.094H8.287a0.378,0.378,0,0,1,.094.189A1.23,1.23,0,0,0,8.8,19.966h0.14V19.919H9.036V19.871h0.14V19.824h0.14V19.777h0.14V19.73H9.6V19.683H9.692V19.635l0.421-.094a2.31,2.31,0,0,1,.656-0.236,1.9,1.9,0,0,0-.375-0.661V18.55L10.3,18.5V18.408l-0.094-.047V18.267H10.16l-0.047-.142-0.094-.047V17.983l-0.14-.094V17.795l-0.094-.047V17.653L9.6,17.511V17.417L9.5,17.37l-0.047-.142-0.187-.142V16.992L9.036,16.8V16.709l-0.281-.236V16.426l-0.094-.047V16.284l-0.468-.425L7.725,15.34H7.632L7.3,14.963H7.21l-0.047-.094H7.117l-0.094-.142H6.929l-0.14-.189H6.7L6.6,14.4H6.508l-0.14-.189H6.274l-0.047-.094H6.134L6.04,13.971H5.946L5.9,13.877l-0.14-.047V13.783H5.665l-0.047-.094H5.525l-0.047-.094H5.384A1.89,1.89,0,0,0,4.729,13.216ZM3.652,16.331L3.184,17.606l-0.14.425H3.09c0.092,0.143.041,0.02,0.14,0.094l0.14,0.189H3.465L3.7,18.6H3.792L4.12,18.975H4.214L4.588,19.4l0.468,0.425v0.094L5.384,20.2l0.047,0.142,0.234,0.189L5.993,21l0.562-.236,0.281-.047V20.674H6.929V20.627H7.07V20.579a1.417,1.417,0,0,0,.609-0.236A1.045,1.045,0,0,1,7.4,19.966l-0.14-.094V19.777L7.164,19.73l-0.047-.142L6.883,19.4l-0.047-.142L6.6,19.069V18.975l-0.328-.283V18.6l-0.281-.236-0.562-.614H5.338l-0.281-.33H4.963l-0.234-.283H4.635L4.448,16.9H4.354l-0.094-.142H4.167l-0.094-.142H3.98l-0.094-.142H3.792V16.426Zm18.681,1.794a2.8,2.8,0,0,1,.7.189c0.514,0.177.955,0,.936,0.755a0.43,0.43,0,0,0-.094.189l-0.234.189v0.094l-0.234.189v0.094l-0.234.189-0.047.142-0.094.047v0.566a1.231,1.231,0,0,1,.047.519c0.05,0.313.091,0.672-.234,0.755V22.09l-0.515-.047V22L22.1,21.948V21.9l-0.187-.047V21.807l-0.234-.047V21.712h-0.14a0.441,0.441,0,0,0-.328-0.142v0.047H21.069v0.047l-0.187.047v0.047h-0.14v0.047H20.648v0.047h-0.14a1.461,1.461,0,0,1-.8.236,0.439,0.439,0,0,1-.234-0.236H19.431V21.665H19.384l0.047-.755h0.047c0.061-.215-0.018-0.5.047-0.661H19.477l-0.187-.283L19.2,19.919V19.824l-0.234-.189V19.541l-0.14-.094a0.9,0.9,0,0,1-.281-0.661h0.047V18.644l0.14-.094V18.5l1.451-.378,0.047-.142h0.047V17.889l0.094-.047,0.047-.189,0.094-.047,0.047-.189,0.094-.047,0.047-.189,0.094-.047a0.568,0.568,0,0,1,.609-0.378,0.438,0.438,0,0,0,.187.094l0.047,0.094h0.047v0.094l0.094,0.047,0.047,0.189,0.094,0.047,0.047,0.189,0.094,0.047L22.1,17.747l0.094,0.047v0.094H22.24v0.094h0.047Zm-1.077-.33-0.562.944H20.6v0.047l-1.077.283v0.047h0.047l0.281,0.378,0.14,0.094v0.094l0.14,0.094,0.047,0.189h0.047V20.2h0.047l-0.094.991h0.047V21.146h0.14V21.1l0.187-.047V21h0.14V20.957l0.187-.047V20.863h0.187V20.815a2.544,2.544,0,0,1,1.264.378V20.815a1.293,1.293,0,0,1-.047-0.614,0.7,0.7,0,0,1,.187-0.519l0.094-.047V19.541l0.094-.047V19.447l0.14-.094V19.258l0.187-.142c-0.053-.054,0-0.019-0.094-0.047l-0.983-.283-0.14-.189H21.725V18.5l-0.094-.047V18.361H21.584V18.267l-0.094-.047-0.047-.189-0.094-.047A0.41,0.41,0,0,0,21.257,17.795Zm-18.494.991a1.753,1.753,0,0,1-.187.519l-0.047.283H2.482v0.094H2.435v0.142H2.388v0.142H2.341v0.142H2.294v0.142H2.247v0.142H2.2v0.094H2.154l-0.047.283H2.06V20.91H2.013v0.142H1.966v0.142H1.92v0.236H1.873L1.92,21.854l0.328,0.283,0.281,0.047V22.137L3,22.09V22.043L3.277,22V21.948H3.371V21.9l0.281-.047V21.807l0.421-.094V21.665H4.167V21.618h0.14V21.571h0.14V21.523l0.281-.047V21.429H4.823V21.382h0.14V21.335l0.281-.047V21.24L5.1,21.146V21.051l-0.281-.236V20.721l-0.375-.33V20.3L4.167,20.06l-0.421-.472H3.652l-0.187-.236Zm12.267,0.755a1.441,1.441,0,0,1,.7.236l0.047,0.094h0.094l0.047,0.094h0.094l0.094,0.142H16.2L16.247,20.2H16.34l0.094,0.142h0.094v0.047l0.14,0.047,0.047,0.094h0.094L16.9,20.674H17l0.047,0.094h0.094L17.23,20.91h0.094L17.371,21h0.094l0.094,0.142h0.094L17.7,21.24h0.094l0.047,0.094h0.047a1.05,1.05,0,0,1,.14.661H17.979l-0.047.236H17.886v0.094l-0.562.519-0.936.991H16.294v0.047H16.2v0.047H16.06v0.047a1.078,1.078,0,0,1-.609-0.094l-0.094-.142H15.31V23.648l-0.14-.094V23.459l-0.094-.047V23.317l-0.14-.094V23.128l-0.094-.047V22.987l-0.14-.094V22.8H14.655l-0.047-.142-0.094-.047V22.515l-0.14-.094V22.326l-0.094-.047V22.184l-0.14-.094V22l-0.094-.047V21.854l-0.141-.095V21.665l-0.094-.047V21.523l-0.094-.047V21.335H13.672a1.286,1.286,0,0,1,0-.614h0.047a0.845,0.845,0,0,1,.328-0.378l0.609-.661a0.437,0.437,0,0,0,.187-0.094h0.187V19.541Zm0.047,0.8a2.951,2.951,0,0,0-.655.8,0.968,0.968,0,0,1,.234.33l0.094,0.047v0.094l0.094,0.047v0.094l0.14,0.095v0.094L15.076,22V22.09l0.14,0.094v0.094l0.094,0.047V22.42l0.14,0.094v0.094l0.094,0.047v0.094L15.638,22.8a1.807,1.807,0,0,0,.281.425V23.176a1.4,1.4,0,0,0,.281-0.283l0.656-.661a1.006,1.006,0,0,0,.375-0.425,0.454,0.454,0,0,1-.094-0.094H17.043L17,21.618H16.9l-0.094-.142H16.715V21.429l-0.14-.047-0.047-.094H16.434l-0.094-.142H16.247L16.2,21.051H16.106l-0.094-.142H15.919l-0.047-.094H15.779l-0.094-.142H15.591l-0.047-.094H15.451L15.4,20.485H15.31V20.438A0.343,0.343,0,0,0,15.076,20.343Z"/>
</svg>
